<?xml version="1.0" encoding="UTF-8"?>
<svg xmlns="http://www.w3.org/2000/svg" viewBox="0 0 960 620" role="img"
     aria-label="Mapa de calor de brotes fitosanitarios en el sur de Almería">
  <defs>
    <linearGradient id="sea" x1="0" y1="0" x2="0" y2="1">
      <stop offset="0%" stop-color="#0f2744"/>
      <stop offset="100%" stop-color="#071018"/>
    </linearGradient>
    <pattern id="grid" width="14" height="14" patternUnits="userSpaceOnUse">
      <path d="M 14 0 L 0 0 0 14" fill="none" stroke="#ffffff" stroke-opacity="0.06" stroke-width="0.6"/>
    </pattern>
    <filter id="glow" x="-50%" y="-50%" width="200%" height="200%">
      <feGaussianBlur stdDeviation="3" result="blur"/>
      <feMerge><feMergeNode in="blur"/><feMergeNode in="SourceGraphic"/></feMerge>
    </filter>
  </defs>
  <rect width="960" height="620" fill="url(#sea)"/>
  <path d="M 75.5,466.7 L 134.1,501.5 L 169.3,506.0 L 227.9,513.4 L 286.5,501.5 L 345.2,495.6 L 403.8,494.1 L 439.0,501.5 L 474.1,486.7 L 497.6,454.1 L 509.3,434.8 L 544.5,442.2 L 603.1,468.9 L 650.0,494.1 L 667.6,523.8 L 720.4,501.5 L 767.3,486.7 L 814.2,448.1 L 825.9,388.8 L 837.6,329.4 L 861.1,270.1 L 872.8,218.1 L 884.5,173.6 L 872.8,129.1 L 872.8,106.8 L 837.6,225.5 L 767.3,329.4 L 696.9,373.9 L 603.1,388.8 L 474.1,396.2 L 345.2,399.9 L 227.9,407.3 L 134.1,433.3 L 75.5,455.5 Z" fill="#1a3a2f" fill-opacity="0.88"/>
  <path d="M 157.5,451.8 L 427.2,451.8 L 427.2,509.0 L 157.5,509.0 Z" fill="url(#grid)" fill-opacity="0.92" stroke="#ffffff" stroke-opacity="0.10"/>
  <path d="M 427.2,466.7 L 521.0,466.7 L 521.0,511.2 L 427.2,511.2 Z" fill="url(#grid)" fill-opacity="0.85" stroke="#ffffff" stroke-opacity="0.10"/>
  <path d="M 75.5,466.7 L 134.1,501.5 L 169.3,506.0 L 227.9,513.4 L 286.5,501.5 L 345.2,495.6 L 403.8,494.1 L 439.0,501.5 L 474.1,486.7 L 497.6,454.1 L 509.3,434.8 L 544.5,442.2 L 603.1,468.9 L 650.0,494.1 L 667.6,523.8 L 720.4,501.5 L 767.3,486.7 L 814.2,448.1 L 825.9,388.8 L 837.6,329.4 L 861.1,270.1 L 872.8,218.1 L 884.5,173.6 L 872.8,129.1" fill="none" stroke="#00D2C4" stroke-opacity="0.40" stroke-width="2"/>
  <g filter="url(#glow)"><circle cx="168.8" cy="500.4" r="34.0" fill="#EAB308" fill-opacity="0.32"/><circle cx="168.8" cy="500.4" r="24.5" fill="#EAB308" fill-opacity="0.25"/><circle cx="168.8" cy="500.4" r="16.3" fill="#EAB308" fill-opacity="0.17"/><circle cx="289.8" cy="480.6" r="54.0" fill="#EF4444" fill-opacity="0.47"/><circle cx="289.8" cy="480.6" r="38.9" fill="#EF4444" fill-opacity="0.36"/><circle cx="289.8" cy="480.6" r="25.9" fill="#EF4444" fill-opacity="0.25"/><circle cx="259.1" cy="443.2" r="44.0" fill="#F97316" fill-opacity="0.38"/><circle cx="259.1" cy="443.2" r="31.7" fill="#F97316" fill-opacity="0.29"/><circle cx="259.1" cy="443.2" r="21.1" fill="#F97316" fill-opacity="0.20"/><circle cx="361.7" cy="467.7" r="34.0" fill="#EAB308" fill-opacity="0.32"/><circle cx="361.7" cy="467.7" r="24.5" fill="#EAB308" fill-opacity="0.25"/><circle cx="361.7" cy="467.7" r="16.3" fill="#EAB308" fill-opacity="0.17"/><circle cx="390.8" cy="440.0" r="26.0" fill="#22C55E" fill-opacity="0.27"/><circle cx="390.8" cy="440.0" r="18.7" fill="#22C55E" fill-opacity="0.21"/><circle cx="390.8" cy="440.0" r="12.5" fill="#22C55E" fill-opacity="0.14"/><circle cx="406.9" cy="489.5" r="44.0" fill="#F97316" fill-opacity="0.38"/><circle cx="406.9" cy="489.5" r="31.7" fill="#F97316" fill-opacity="0.29"/><circle cx="406.9" cy="489.5" r="21.1" fill="#F97316" fill-opacity="0.20"/><circle cx="448.1" cy="504.2" r="34.0" fill="#EAB308" fill-opacity="0.32"/><circle cx="448.1" cy="504.2" r="24.5" fill="#EAB308" fill-opacity="0.25"/><circle cx="448.1" cy="504.2" r="16.3" fill="#EAB308" fill-opacity="0.17"/><circle cx="495.4" cy="437.7" r="34.0" fill="#EAB308" fill-opacity="0.32"/><circle cx="495.4" cy="437.7" r="24.5" fill="#EAB308" fill-opacity="0.25"/><circle cx="495.4" cy="437.7" r="16.3" fill="#EAB308" fill-opacity="0.17"/><circle cx="646.8" cy="339.6" r="26.0" fill="#22C55E" fill-opacity="0.27"/><circle cx="646.8" cy="339.6" r="18.7" fill="#22C55E" fill-opacity="0.21"/><circle cx="646.8" cy="339.6" r="12.5" fill="#22C55E" fill-opacity="0.14"/><circle cx="855.9" cy="210.5" r="26.0" fill="#22C55E" fill-opacity="0.27"/><circle cx="855.9" cy="210.5" r="18.7" fill="#22C55E" fill-opacity="0.21"/><circle cx="855.9" cy="210.5" r="12.5" fill="#22C55E" fill-opacity="0.14"/></g>
  <circle cx="102.8" cy="475.4" r="3.5" fill="#00D2C4" stroke="#0B192C" stroke-width="1"/><text x="102.8" y="454.4" text-anchor="middle" font-family="Plus Jakarta Sans, Arial, sans-serif" font-size="11" font-weight="500" fill="#CBD5E1">Albuñol</text><circle cx="168.8" cy="500.4" r="3.5" fill="#00D2C4" stroke="#0B192C" stroke-width="1"/><text x="168.8" y="502.4" text-anchor="middle" font-family="Plus Jakarta Sans, Arial, sans-serif" font-size="11" font-weight="500" fill="#FFFFFF">Adra</text><circle cx="236.7" cy="507.5" r="3.5" fill="#00D2C4" stroke="#0B192C" stroke-width="1"/><text x="236.7" y="509.5" text-anchor="middle" font-family="Plus Jakarta Sans, Arial, sans-serif" font-size="11" font-weight="500" fill="#CBD5E1">Balanegra</text><circle cx="210.7" cy="428.8" r="3.5" fill="#00D2C4" stroke="#0B192C" stroke-width="1"/><text x="192.7" y="410.8" text-anchor="middle" font-family="Plus Jakarta Sans, Arial, sans-serif" font-size="11" font-weight="500" fill="#CBD5E1">Berja</text><circle cx="289.8" cy="480.6" r="3.5" fill="#00D2C4" stroke="#0B192C" stroke-width="1"/><text x="289.8" y="458.6" text-anchor="middle" font-family="Plus Jakarta Sans, Arial, sans-serif" font-size="11" font-weight="700" fill="#FFFFFF">El Ejido</text><circle cx="259.1" cy="443.2" r="3.5" fill="#00D2C4" stroke="#0B192C" stroke-width="1"/><text x="245.1" y="423.2" text-anchor="middle" font-family="Plus Jakarta Sans, Arial, sans-serif" font-size="11" font-weight="700" fill="#FFFFFF">Dalías</text><circle cx="361.7" cy="467.7" r="3.5" fill="#00D2C4" stroke="#0B192C" stroke-width="1"/><text x="361.7" y="445.7" text-anchor="middle" font-family="Plus Jakarta Sans, Arial, sans-serif" font-size="11" font-weight="500" fill="#FFFFFF">La Mojonera</text><circle cx="390.8" cy="440.0" r="3.5" fill="#00D2C4" stroke="#0B192C" stroke-width="1"/><text x="390.8" y="418.0" text-anchor="middle" font-family="Plus Jakarta Sans, Arial, sans-serif" font-size="11" font-weight="500" fill="#FFFFFF">Vícar</text><circle cx="406.9" cy="489.5" r="3.5" fill="#00D2C4" stroke="#0B192C" stroke-width="1"/><text x="406.9" y="491.5" text-anchor="middle" font-family="Plus Jakarta Sans, Arial, sans-serif" font-size="11" font-weight="700" fill="#FFFFFF">Roquetas</text><circle cx="448.1" cy="504.2" r="3.5" fill="#00D2C4" stroke="#0B192C" stroke-width="1"/><text x="460.1" y="504.2" text-anchor="middle" font-family="Plus Jakarta Sans, Arial, sans-serif" font-size="11" font-weight="500" fill="#FFFFFF">Ríoja</text><circle cx="495.4" cy="437.7" r="3.5" fill="#00D2C4" stroke="#0B192C" stroke-width="1"/><text x="495.4" y="415.7" text-anchor="middle" font-family="Plus Jakarta Sans, Arial, sans-serif" font-size="11" font-weight="500" fill="#FFFFFF">Almería</text><circle cx="646.8" cy="339.6" r="3.5" fill="#00D2C4" stroke="#0B192C" stroke-width="1"/><text x="624.8" y="329.6" text-anchor="middle" font-family="Plus Jakarta Sans, Arial, sans-serif" font-size="11" font-weight="500" fill="#FFFFFF">Níjar</text><circle cx="704.6" cy="493.5" r="3.5" fill="#00D2C4" stroke="#0B192C" stroke-width="1"/><text x="704.6" y="495.5" text-anchor="middle" font-family="Plus Jakarta Sans, Arial, sans-serif" font-size="11" font-weight="500" fill="#CBD5E1">San José</text><circle cx="828.5" cy="317.0" r="3.5" fill="#00D2C4" stroke="#0B192C" stroke-width="1"/><text x="828.5" y="296.0" text-anchor="middle" font-family="Plus Jakarta Sans, Arial, sans-serif" font-size="11" font-weight="500" fill="#CBD5E1">Carboneras</text><circle cx="855.9" cy="210.5" r="3.5" fill="#00D2C4" stroke="#0B192C" stroke-width="1"/><text x="855.9" y="189.5" text-anchor="middle" font-family="Plus Jakarta Sans, Arial, sans-serif" font-size="11" font-weight="500" fill="#FFFFFF">Mojácar</text><circle cx="871.4" cy="180.0" r="3.5" fill="#00D2C4" stroke="#0B192C" stroke-width="1"/><text x="883.4" y="170.0" text-anchor="middle" font-family="Plus Jakarta Sans, Arial, sans-serif" font-size="11" font-weight="500" fill="#CBD5E1">Garrucha</text><circle cx="851.2" cy="132.0" r="3.5" fill="#00D2C4" stroke="#0B192C" stroke-width="1"/><text x="839.2" y="112.0" text-anchor="middle" font-family="Plus Jakarta Sans, Arial, sans-serif" font-size="11" font-weight="500" fill="#CBD5E1">Vera</text>
  <g font-family="Plus Jakarta Sans, Arial, sans-serif">
    <text x="52" y="34" fill="#FFFFFF" font-size="20" font-weight="800">Sur de Almería</text>
    <text x="52" y="56" fill="#00A86B" font-size="13" font-weight="600">Mapa de calor de brotes · datos agregados por zona</text>
    <text x="52" y="604" fill="#94A3B8" font-size="10">De Adra a Vera · tu finca no se muestra, solo el paraje</text>
  </g>
  <g transform="translate(750,440)">
    <rect width="158" height="118" rx="10" fill="#0B192C" fill-opacity="0.88" stroke="#334155"/>
    <text x="12" y="22" fill="#E2E8F0" font-size="11" font-weight="700">Intensidad</text>
    <circle cx="22" cy="42" r="7" fill="#EF4444"/><text x="36" y="46" fill="#CBD5E1" font-size="10">Muy alta</text>
    <circle cx="22" cy="62" r="6" fill="#F97316"/><text x="36" y="66" fill="#CBD5E1" font-size="10">Alta</text>
    <circle cx="22" cy="82" r="5" fill="#EAB308"/><text x="36" y="86" fill="#CBD5E1" font-size="10">Media</text>
    <circle cx="22" cy="102" r="4" fill="#22C55E"/><text x="36" y="106" fill="#CBD5E1" font-size="10">Baja</text>
  </g>
  <g transform="translate(52,520)" font-family="Plus Jakarta Sans, Arial, sans-serif" font-size="9" fill="#64748B">
    <text x="0" y="0" fill="#00D2C4" font-size="10" font-weight="600">O</text>
    <line x1="10" y1="-2" x2="10" y2="-16" stroke="#64748B" stroke-width="1"/>
    <text x="6" y="-20">N</text>
    <text x="28" y="0">Poniente</text>
    <text x="420" y="0">Cabo de Gata</text>
    <text x="720" y="0">Levante</text>
  </g>
</svg>
